<svg width="1000" height="600" xmlns="http://www.w3.org/2000/svg"><path fill="transparent" d="M0 0h1000v600H0z"/><path d="M0 150h0c57.236-.106 114.472-.213 171 0 56.528.213 112.35.745 165-1 52.65-1.745 102.13-5.769 159-7 56.87-1.231 121.13.33 177 3 55.87 2.67 103.35 6.45 163 9 59.65 2.55 131.472 3.872 161 3 29.528-.872 16.764-3.936 44-7M0 300h0c57.703 4.55 115.406 9.1 172 8 56.594-1.1 112.08-7.852 166-7 53.92.852 106.277 9.308 161 9 54.723-.308 111.812-9.382 165-9 53.188.382 102.474 10.218 166 8 63.526-2.218 141.293-16.49 172-20 30.707-3.51 14.353 3.745 38 11M0 450h0c58.62 4.65 117.239 9.299 172 11 54.761 1.701 105.664.455 158 0s106.107-.12 164-1 119.91-2.978 173-6 97.255-6.967 160-10c62.745-3.033 144.07-5.152 176-4 31.93 1.152 14.465 5.576 37 10" fill="none" stroke="#fff" stroke-width="10" stroke-linecap="round"/></svg>